<?xml version="1.0" encoding="UTF-8"?>
<svg xmlns="http://www.w3.org/2000/svg" xmlns:xlink="http://www.w3.org/1999/xlink" width="1920" height="1080" viewBox="0 0 1920 1080">
<defs>
<g>
<g id="glyph-0-0">
<path d="M 4.21875 -9.515625 C 5.519531 -9.515625 6.46875 -9.320312 7.0625 -8.9375 C 7.65625 -8.550781 7.953125 -7.953125 7.953125 -7.140625 C 7.953125 -6.546875 7.796875 -6.070312 7.484375 -5.71875 C 7.171875 -5.375 6.789062 -5.148438 6.34375 -5.046875 L 6.34375 -4.984375 C 6.65625 -4.921875 6.953125 -4.804688 7.234375 -4.640625 C 7.515625 -4.484375 7.742188 -4.253906 7.921875 -3.953125 C 8.109375 -3.648438 8.203125 -3.253906 8.203125 -2.765625 C 8.203125 -1.890625 7.882812 -1.207031 7.25 -0.71875 C 6.625 -0.238281 5.769531 0 4.6875 0 L 1.140625 0 L 1.140625 -9.515625 Z M 4.3125 -5.703125 C 4.894531 -5.703125 5.296875 -5.804688 5.515625 -6.015625 C 5.742188 -6.234375 5.859375 -6.515625 5.859375 -6.859375 C 5.859375 -7.222656 5.722656 -7.492188 5.453125 -7.671875 C 5.191406 -7.847656 4.78125 -7.9375 4.21875 -7.9375 L 3.171875 -7.9375 L 3.171875 -5.703125 Z M 3.171875 -4.171875 L 3.171875 -1.609375 L 4.46875 -1.609375 C 5.070312 -1.609375 5.488281 -1.726562 5.71875 -1.96875 C 5.957031 -2.21875 6.078125 -2.535156 6.078125 -2.921875 C 6.078125 -3.265625 5.957031 -3.554688 5.71875 -3.796875 C 5.476562 -4.046875 5.035156 -4.171875 4.390625 -4.171875 Z "/>
</g>
<g id="glyph-0-1">
<path d="M 7.6875 -3.65625 C 7.6875 -2.445312 7.367188 -1.507812 6.734375 -0.84375 C 6.097656 -0.1875 5.234375 0.140625 4.140625 0.140625 C 3.460938 0.140625 2.859375 -0.00390625 2.328125 -0.296875 C 1.796875 -0.597656 1.378906 -1.03125 1.078125 -1.59375 C 0.773438 -2.15625 0.625 -2.84375 0.625 -3.65625 C 0.625 -4.863281 0.941406 -5.789062 1.578125 -6.4375 C 2.210938 -7.082031 3.082031 -7.40625 4.1875 -7.40625 C 4.875 -7.40625 5.476562 -7.257812 6 -6.96875 C 6.519531 -6.6875 6.929688 -6.265625 7.234375 -5.703125 C 7.535156 -5.140625 7.6875 -4.457031 7.6875 -3.65625 Z M 2.671875 -3.65625 C 2.671875 -2.9375 2.785156 -2.378906 3.015625 -1.984375 C 3.253906 -1.597656 3.640625 -1.40625 4.171875 -1.40625 C 4.679688 -1.40625 5.050781 -1.597656 5.28125 -1.984375 C 5.519531 -2.378906 5.640625 -2.9375 5.640625 -3.65625 C 5.640625 -4.375 5.519531 -4.921875 5.28125 -5.296875 C 5.050781 -5.679688 4.675781 -5.875 4.15625 -5.875 C 3.632812 -5.875 3.253906 -5.679688 3.015625 -5.296875 C 2.785156 -4.921875 2.671875 -4.375 2.671875 -3.65625 Z "/>
</g>
<g id="glyph-0-2">
<path d="M 7.671875 -7.28125 L 7.671875 0 L 6.125 0 L 5.875 -0.9375 L 5.75 -0.9375 C 5.519531 -0.5625 5.207031 -0.285156 4.8125 -0.109375 C 4.414062 0.0546875 3.984375 0.140625 3.515625 0.140625 C 2.742188 0.140625 2.117188 -0.0703125 1.640625 -0.5 C 1.171875 -0.925781 0.9375 -1.601562 0.9375 -2.53125 L 0.9375 -7.28125 L 2.953125 -7.28125 L 2.953125 -3.03125 C 2.953125 -2.519531 3.039062 -2.132812 3.21875 -1.875 C 3.40625 -1.613281 3.703125 -1.484375 4.109375 -1.484375 C 4.710938 -1.484375 5.125 -1.6875 5.34375 -2.09375 C 5.5625 -2.5 5.671875 -3.085938 5.671875 -3.859375 L 5.671875 -7.28125 Z "/>
</g>
<g id="glyph-0-3">
<path d="M 5.125 -7.40625 C 5.925781 -7.40625 6.554688 -7.191406 7.015625 -6.765625 C 7.484375 -6.347656 7.71875 -5.675781 7.71875 -4.75 L 7.71875 0 L 5.71875 0 L 5.71875 -4.234375 C 5.71875 -5.285156 5.328125 -5.8125 4.546875 -5.8125 C 3.941406 -5.8125 3.53125 -5.601562 3.3125 -5.1875 C 3.09375 -4.78125 2.984375 -4.1875 2.984375 -3.40625 L 2.984375 0 L 0.96875 0 L 0.96875 -7.28125 L 2.515625 -7.28125 L 2.796875 -6.296875 L 2.875 -6.296875 C 3.351562 -7.035156 4.101562 -7.40625 5.125 -7.40625 Z "/>
</g>
<g id="glyph-0-4">
<path d="M 4.140625 0.140625 C 3.441406 0.140625 2.828125 0.0078125 2.296875 -0.25 C 1.765625 -0.519531 1.351562 -0.929688 1.0625 -1.484375 C 0.769531 -2.035156 0.625 -2.738281 0.625 -3.59375 C 0.625 -4.488281 0.785156 -5.21875 1.109375 -5.78125 C 1.429688 -6.34375 1.863281 -6.753906 2.40625 -7.015625 C 2.957031 -7.273438 3.585938 -7.40625 4.296875 -7.40625 C 4.710938 -7.40625 5.109375 -7.359375 5.484375 -7.265625 C 5.867188 -7.179688 6.207031 -7.066406 6.5 -6.921875 L 5.90625 -5.390625 C 5.632812 -5.515625 5.363281 -5.613281 5.09375 -5.6875 C 4.820312 -5.757812 4.554688 -5.796875 4.296875 -5.796875 C 3.773438 -5.796875 3.375 -5.613281 3.09375 -5.25 C 2.8125 -4.882812 2.671875 -4.335938 2.671875 -3.609375 C 2.671875 -2.890625 2.8125 -2.359375 3.09375 -2.015625 C 3.375 -1.671875 3.765625 -1.5 4.265625 -1.5 C 4.640625 -1.5 5 -1.546875 5.34375 -1.640625 C 5.6875 -1.742188 6.003906 -1.878906 6.296875 -2.046875 L 6.296875 -0.40625 C 6.015625 -0.238281 5.703125 -0.101562 5.359375 0 C 5.015625 0.09375 4.609375 0.140625 4.140625 0.140625 Z "/>
</g>
<g id="glyph-0-5">
<path d="M 2 -10.140625 C 2.289062 -10.140625 2.546875 -10.070312 2.765625 -9.9375 C 2.984375 -9.800781 3.09375 -9.539062 3.09375 -9.15625 C 3.09375 -8.789062 2.984375 -8.535156 2.765625 -8.390625 C 2.546875 -8.253906 2.289062 -8.1875 2 -8.1875 C 1.695312 -8.1875 1.4375 -8.253906 1.21875 -8.390625 C 1.007812 -8.535156 0.90625 -8.789062 0.90625 -9.15625 C 0.90625 -9.539062 1.007812 -9.800781 1.21875 -9.9375 C 1.4375 -10.070312 1.695312 -10.140625 2 -10.140625 Z M 3 -7.28125 L 3 0 L 0.984375 0 L 0.984375 -7.28125 Z "/>
</g>
<g id="glyph-0-6">
<path d="M 3.40625 -7.40625 C 3.894531 -7.40625 4.3125 -7.3125 4.65625 -7.125 C 5 -6.9375 5.28125 -6.679688 5.5 -6.359375 L 5.578125 -6.359375 L 5.75 -7.28125 L 7.453125 -7.28125 L 7.453125 0.046875 C 7.453125 1.078125 7.15625 1.859375 6.5625 2.390625 C 5.96875 2.929688 5.046875 3.203125 3.796875 3.203125 C 3.234375 3.203125 2.726562 3.164062 2.28125 3.09375 C 1.84375 3.03125 1.429688 2.921875 1.046875 2.765625 L 1.046875 1.046875 C 1.453125 1.222656 1.863281 1.359375 2.28125 1.453125 C 2.695312 1.554688 3.179688 1.609375 3.734375 1.609375 C 4.285156 1.609375 4.707031 1.476562 5 1.21875 C 5.289062 0.96875 5.4375 0.613281 5.4375 0.15625 L 5.4375 -0.046875 C 5.4375 -0.148438 5.441406 -0.289062 5.453125 -0.46875 C 5.472656 -0.644531 5.488281 -0.800781 5.5 -0.9375 L 5.4375 -0.9375 C 5.226562 -0.613281 4.957031 -0.351562 4.625 -0.15625 C 4.289062 0.0390625 3.878906 0.140625 3.390625 0.140625 C 2.546875 0.140625 1.875 -0.179688 1.375 -0.828125 C 0.875 -1.484375 0.625 -2.414062 0.625 -3.625 C 0.625 -4.832031 0.875 -5.765625 1.375 -6.421875 C 1.882812 -7.078125 2.5625 -7.40625 3.40625 -7.40625 Z M 4.046875 -5.828125 C 3.609375 -5.828125 3.269531 -5.632812 3.03125 -5.25 C 2.789062 -4.863281 2.671875 -4.3125 2.671875 -3.59375 C 2.671875 -2.15625 3.144531 -1.4375 4.09375 -1.4375 C 4.625 -1.4375 5.003906 -1.59375 5.234375 -1.90625 C 5.460938 -2.21875 5.578125 -2.703125 5.578125 -3.359375 L 5.578125 -3.65625 C 5.578125 -4.382812 5.460938 -4.925781 5.234375 -5.28125 C 5.003906 -5.644531 4.609375 -5.828125 4.046875 -5.828125 Z "/>
</g>
<g id="glyph-0-7">
</g>
<g id="glyph-0-8">
<path d="M 4.21875 -7.40625 C 5.125 -7.40625 5.816406 -7.191406 6.296875 -6.765625 C 6.785156 -6.335938 7.03125 -5.695312 7.03125 -4.84375 L 7.03125 0 L 5.640625 0 L 5.25 -0.984375 L 5.203125 -0.984375 C 4.878906 -0.597656 4.546875 -0.3125 4.203125 -0.125 C 3.859375 0.0507812 3.378906 0.140625 2.765625 0.140625 C 2.128906 0.140625 1.597656 -0.046875 1.171875 -0.421875 C 0.742188 -0.796875 0.53125 -1.367188 0.53125 -2.140625 C 0.53125 -2.898438 0.804688 -3.472656 1.359375 -3.859375 C 1.910156 -4.242188 2.734375 -4.457031 3.828125 -4.5 L 5.03125 -4.546875 L 5.03125 -4.765625 C 5.03125 -5.203125 4.929688 -5.503906 4.734375 -5.671875 C 4.535156 -5.847656 4.265625 -5.9375 3.921875 -5.9375 C 3.585938 -5.9375 3.25 -5.882812 2.90625 -5.78125 C 2.5625 -5.675781 2.21875 -5.546875 1.875 -5.390625 L 1.296875 -6.765625 C 1.671875 -6.960938 2.101562 -7.117188 2.59375 -7.234375 C 3.09375 -7.347656 3.632812 -7.40625 4.21875 -7.40625 Z M 4.28125 -3.328125 C 3.632812 -3.316406 3.1875 -3.21875 2.9375 -3.03125 C 2.695312 -2.84375 2.578125 -2.578125 2.578125 -2.234375 C 2.578125 -1.921875 2.664062 -1.691406 2.84375 -1.546875 C 3.019531 -1.398438 3.253906 -1.328125 3.546875 -1.328125 C 3.960938 -1.328125 4.3125 -1.453125 4.59375 -1.703125 C 4.882812 -1.953125 5.03125 -2.304688 5.03125 -2.765625 L 5.03125 -3.375 Z "/>
</g>
<g id="glyph-0-9">
<path d="M 2.984375 0 L 0.96875 0 L 0.96875 -10.125 L 2.984375 -10.125 Z "/>
</g>
<g id="glyph-0-10">
<path d="M 4.125 -9.65625 C 4.644531 -9.65625 5.101562 -9.570312 5.5 -9.40625 C 5.90625 -9.25 6.222656 -9.015625 6.453125 -8.703125 C 6.679688 -8.398438 6.796875 -8.023438 6.796875 -7.578125 C 6.796875 -6.960938 6.613281 -6.445312 6.25 -6.03125 C 5.882812 -5.613281 5.429688 -5.25 4.890625 -4.9375 L 6.75 -3.140625 C 6.925781 -3.441406 7.078125 -3.757812 7.203125 -4.09375 C 7.335938 -4.425781 7.453125 -4.765625 7.546875 -5.109375 L 9.609375 -5.109375 C 9.472656 -4.609375 9.273438 -4.070312 9.015625 -3.5 C 8.765625 -2.9375 8.4375 -2.40625 8.03125 -1.90625 L 10 0 L 7.546875 0 L 6.796875 -0.734375 C 6.410156 -0.460938 5.984375 -0.25 5.515625 -0.09375 C 5.046875 0.0625 4.535156 0.140625 3.984375 0.140625 C 2.898438 0.140625 2.050781 -0.109375 1.4375 -0.609375 C 0.832031 -1.109375 0.53125 -1.765625 0.53125 -2.578125 C 0.53125 -3.242188 0.6875 -3.78125 1 -4.1875 C 1.3125 -4.59375 1.738281 -4.953125 2.28125 -5.265625 C 1.9375 -5.660156 1.691406 -6.023438 1.546875 -6.359375 C 1.410156 -6.703125 1.34375 -7.066406 1.34375 -7.453125 C 1.34375 -7.898438 1.457031 -8.285156 1.6875 -8.609375 C 1.925781 -8.941406 2.253906 -9.195312 2.671875 -9.375 C 3.097656 -9.5625 3.582031 -9.65625 4.125 -9.65625 Z M 4.125 -8.109375 C 3.894531 -8.109375 3.679688 -8.050781 3.484375 -7.9375 C 3.285156 -7.832031 3.1875 -7.625 3.1875 -7.3125 C 3.1875 -7.09375 3.238281 -6.878906 3.34375 -6.671875 C 3.457031 -6.472656 3.609375 -6.265625 3.796875 -6.046875 C 4.171875 -6.253906 4.457031 -6.457031 4.65625 -6.65625 C 4.851562 -6.863281 4.953125 -7.101562 4.953125 -7.375 C 4.953125 -7.632812 4.863281 -7.820312 4.6875 -7.9375 C 4.507812 -8.050781 4.320312 -8.109375 4.125 -8.109375 Z M 3.4375 -4.078125 C 3.1875 -3.890625 2.988281 -3.691406 2.84375 -3.484375 C 2.695312 -3.273438 2.625 -3.035156 2.625 -2.765625 C 2.625 -2.378906 2.765625 -2.078125 3.046875 -1.859375 C 3.335938 -1.640625 3.695312 -1.53125 4.125 -1.53125 C 4.40625 -1.53125 4.671875 -1.566406 4.921875 -1.640625 C 5.171875 -1.710938 5.394531 -1.8125 5.59375 -1.9375 Z "/>
</g>
<g id="glyph-0-11">
<path d="M 6.8125 -2.640625 C 6.8125 -1.796875 6.503906 -1.117188 5.890625 -0.609375 C 5.285156 -0.109375 4.425781 0.140625 3.3125 0.140625 C 2.300781 0.140625 1.398438 -0.0507812 0.609375 -0.4375 L 0.609375 -2.3125 C 1.066406 -2.125 1.535156 -1.945312 2.015625 -1.78125 C 2.503906 -1.613281 2.988281 -1.53125 3.46875 -1.53125 C 3.96875 -1.53125 4.320312 -1.625 4.53125 -1.8125 C 4.738281 -2.007812 4.84375 -2.253906 4.84375 -2.546875 C 4.84375 -2.785156 4.757812 -2.988281 4.59375 -3.15625 C 4.425781 -3.320312 4.203125 -3.476562 3.921875 -3.625 C 3.648438 -3.78125 3.335938 -3.941406 2.984375 -4.109375 C 2.765625 -4.210938 2.523438 -4.335938 2.265625 -4.484375 C 2.003906 -4.628906 1.753906 -4.8125 1.515625 -5.03125 C 1.285156 -5.25 1.09375 -5.515625 0.9375 -5.828125 C 0.789062 -6.140625 0.71875 -6.507812 0.71875 -6.9375 C 0.71875 -7.789062 1.003906 -8.457031 1.578125 -8.9375 C 2.160156 -9.414062 2.945312 -9.65625 3.9375 -9.65625 C 4.4375 -9.65625 4.910156 -9.59375 5.359375 -9.46875 C 5.804688 -9.351562 6.273438 -9.191406 6.765625 -8.984375 L 6.125 -7.40625 C 5.6875 -7.582031 5.289062 -7.71875 4.9375 -7.8125 C 4.59375 -7.914062 4.238281 -7.96875 3.875 -7.96875 C 3.5 -7.96875 3.207031 -7.878906 3 -7.703125 C 2.789062 -7.523438 2.6875 -7.296875 2.6875 -7.015625 C 2.6875 -6.671875 2.835938 -6.398438 3.140625 -6.203125 C 3.441406 -6.015625 3.890625 -5.773438 4.484375 -5.484375 C 4.972656 -5.253906 5.390625 -5.015625 5.734375 -4.765625 C 6.078125 -4.515625 6.34375 -4.222656 6.53125 -3.890625 C 6.71875 -3.554688 6.8125 -3.140625 6.8125 -2.640625 Z "/>
</g>
<g id="glyph-0-12">
<path d="M 4.078125 -7.40625 C 5.085938 -7.40625 5.882812 -7.117188 6.46875 -6.546875 C 7.050781 -5.984375 7.34375 -5.171875 7.34375 -4.109375 L 7.34375 -3.125 L 2.671875 -3.125 C 2.691406 -2.582031 2.859375 -2.148438 3.171875 -1.828125 C 3.492188 -1.515625 3.953125 -1.359375 4.546875 -1.359375 C 4.992188 -1.359375 5.40625 -1.398438 5.78125 -1.484375 C 6.15625 -1.578125 6.539062 -1.710938 6.9375 -1.890625 L 6.9375 -0.390625 C 6.570312 -0.210938 6.191406 -0.0820312 5.796875 0 C 5.398438 0.09375 4.910156 0.140625 4.328125 0.140625 C 3.609375 0.140625 2.972656 0.00390625 2.421875 -0.265625 C 1.867188 -0.546875 1.429688 -0.957031 1.109375 -1.5 C 0.785156 -2.050781 0.625 -2.742188 0.625 -3.578125 C 0.625 -4.847656 0.941406 -5.800781 1.578125 -6.4375 C 2.210938 -7.082031 3.046875 -7.40625 4.078125 -7.40625 Z M 4.125 -5.984375 C 3.726562 -5.984375 3.398438 -5.851562 3.140625 -5.59375 C 2.890625 -5.34375 2.75 -4.972656 2.71875 -4.484375 L 5.46875 -4.484375 C 5.457031 -4.910156 5.34375 -5.265625 5.125 -5.546875 C 4.90625 -5.835938 4.570312 -5.984375 4.125 -5.984375 Z "/>
</g>
<g id="glyph-0-13">
<path d="M 12.890625 -9.515625 L 10.46875 0 L 8.171875 0 L 6.875 -5 C 6.851562 -5.09375 6.820312 -5.238281 6.78125 -5.4375 C 6.738281 -5.632812 6.691406 -5.847656 6.640625 -6.078125 C 6.597656 -6.304688 6.554688 -6.523438 6.515625 -6.734375 C 6.484375 -6.941406 6.457031 -7.101562 6.4375 -7.21875 C 6.425781 -7.101562 6.398438 -6.941406 6.359375 -6.734375 C 6.316406 -6.523438 6.273438 -6.304688 6.234375 -6.078125 C 6.191406 -5.859375 6.144531 -5.644531 6.09375 -5.4375 C 6.050781 -5.238281 6.019531 -5.085938 6 -4.984375 L 4.71875 0 L 2.421875 0 L 0 -9.515625 L 1.984375 -9.515625 L 3.203125 -4.3125 C 3.253906 -4.113281 3.3125 -3.859375 3.375 -3.546875 C 3.4375 -3.234375 3.492188 -2.921875 3.546875 -2.609375 C 3.597656 -2.296875 3.640625 -2.035156 3.671875 -1.828125 C 3.691406 -2.046875 3.726562 -2.304688 3.78125 -2.609375 C 3.832031 -2.921875 3.882812 -3.21875 3.9375 -3.5 C 4 -3.789062 4.054688 -4.019531 4.109375 -4.1875 L 5.484375 -9.515625 L 7.390625 -9.515625 L 8.78125 -4.1875 C 8.820312 -4.03125 8.867188 -3.804688 8.921875 -3.515625 C 8.984375 -3.222656 9.039062 -2.921875 9.09375 -2.609375 C 9.15625 -2.296875 9.195312 -2.035156 9.21875 -1.828125 C 9.25 -2.046875 9.289062 -2.304688 9.34375 -2.609375 C 9.394531 -2.921875 9.453125 -3.234375 9.515625 -3.546875 C 9.585938 -3.859375 9.644531 -4.113281 9.6875 -4.3125 L 10.90625 -9.515625 Z "/>
</g>
<g id="glyph-0-14">
<path d="M 2.765625 0 L 0 -7.28125 L 2.109375 -7.28125 L 3.46875 -2.984375 C 3.507812 -2.835938 3.5625 -2.644531 3.625 -2.40625 C 3.695312 -2.164062 3.742188 -1.957031 3.765625 -1.78125 L 3.8125 -1.78125 C 3.832031 -1.957031 3.875 -2.160156 3.9375 -2.390625 C 4 -2.617188 4.0625 -2.8125 4.125 -2.96875 L 5.5 -7.28125 L 7.609375 -7.28125 L 4.84375 0 Z "/>
</g>
</g>
</defs>
<g fill="rgb(100%, 100%, 100%)" fill-opacity="1">
<use xlink:href="#glyph-0-0" x="30" y="34.25293"/>
<use xlink:href="#glyph-0-1" x="39" y="34.25293"/>
<use xlink:href="#glyph-0-2" x="47" y="34.25293"/>
<use xlink:href="#glyph-0-3" x="56" y="34.25293"/>
<use xlink:href="#glyph-0-4" x="65" y="34.25293"/>
<use xlink:href="#glyph-0-5" x="72" y="34.25293"/>
<use xlink:href="#glyph-0-3" x="76" y="34.25293"/>
<use xlink:href="#glyph-0-6" x="85" y="34.25293"/>
<use xlink:href="#glyph-0-7" x="93" y="34.25293"/>
<use xlink:href="#glyph-0-0" x="96" y="34.25293"/>
<use xlink:href="#glyph-0-8" x="105" y="34.25293"/>
<use xlink:href="#glyph-0-9" x="113" y="34.25293"/>
<use xlink:href="#glyph-0-9" x="117" y="34.25293"/>
<use xlink:href="#glyph-0-7" x="121" y="34.25293"/>
<use xlink:href="#glyph-0-10" x="124" y="34.25293"/>
<use xlink:href="#glyph-0-7" x="134" y="34.25293"/>
<use xlink:href="#glyph-0-11" x="137" y="34.25293"/>
<use xlink:href="#glyph-0-5" x="144" y="34.25293"/>
<use xlink:href="#glyph-0-3" x="148" y="34.25293"/>
<use xlink:href="#glyph-0-12" x="157" y="34.25293"/>
<use xlink:href="#glyph-0-7" x="165" y="34.25293"/>
<use xlink:href="#glyph-0-13" x="168" y="34.25293"/>
<use xlink:href="#glyph-0-8" x="181" y="34.25293"/>
<use xlink:href="#glyph-0-14" x="189" y="34.25293"/>
<use xlink:href="#glyph-0-12" x="197" y="34.25293"/>
</g>
</svg>
